<svg width="263" height="49" viewBox="0 0 263 49" fill="none" xmlns="http://www.w3.org/2000/svg">
<g clip-path="url(#clip0_3_639)">
<path d="M30.4778 10.1147C29.9325 11.4416 28.4079 12.0751 27.0825 11.5262L21.6849 9.29228C20.1773 8.6679 18.5785 8.35054 16.9763 8.33435L18.4765 3.32823C20.5003 3.57068 22.4991 4.0792 24.4181 4.85906L29.0665 6.74931C30.3901 7.2871 31.0217 8.79346 30.4778 10.1147Z" fill="url(#paint0_linear_3_639)"/>
<path d="M33.8218 10.6746C33.2003 11.9362 31.6688 12.4507 30.4111 11.8207L25.2891 9.2568C23.2955 8.2583 21.0894 7.82819 18.9032 7.97661L17.0491 2.81237C20.8862 2.60522 24.7484 3.37736 28.2556 5.10498L32.6689 7.28004C33.9255 7.89896 34.4415 9.4184 33.8218 10.6746Z" fill="url(#paint1_linear_3_639)"/>
<path d="M36.4611 10.041C35.8431 11.3356 34.2859 11.8838 32.9929 11.2624L27.7273 8.73323C25.6779 7.74819 23.4188 7.34527 21.1879 7.53125L19.2253 2.30198C23.1417 2.02998 27.0967 2.75468 30.7018 4.45812L35.2383 6.60278C36.53 7.21294 37.0773 8.75196 36.4611 10.041Z" fill="url(#paint2_linear_3_639)"/>
<path d="M24.5 32.5C30.8155 32.5 35.9353 27.3802 35.9353 21.0647C35.9353 14.7492 30.8155 9.62941 24.5 9.62941C18.1845 9.62941 13.0647 14.7492 13.0647 21.0647C13.0647 27.3802 18.1845 32.5 24.5 32.5Z" fill="url(#paint3_linear_3_639)"/>
<path d="M24.4999 30.2882C29.5939 30.2882 33.7234 26.1587 33.7234 21.0647C33.7234 15.9707 29.5939 11.8412 24.4999 11.8412C19.4059 11.8412 15.2764 15.9707 15.2764 21.0647C15.2764 26.1587 19.4059 30.2882 24.4999 30.2882Z" fill="url(#paint4_linear_3_639)"/>
<path d="M24.4999 29.1588C28.9701 29.1588 32.594 25.535 32.594 21.0647C32.594 16.5944 28.9701 12.9706 24.4999 12.9706C20.0296 12.9706 16.4058 16.5944 16.4058 21.0647C16.4058 25.535 20.0296 29.1588 24.4999 29.1588Z" fill="url(#paint5_linear_3_639)"/>
<path d="M25.4112 19.5619V16.8192C26.6322 16.9132 26.9891 17.5143 27.609 17.5143C28.4355 17.5143 28.7737 16.4811 28.7737 15.9739C28.7737 14.6777 26.5759 14.3772 25.4112 14.3396V13.87C25.4112 13.607 25.0543 13.3628 24.6974 13.3628C24.2841 13.3628 23.9836 13.607 23.9836 13.87V14.396C21.9923 14.6778 20.2265 15.8237 20.2265 18.2094C20.2265 20.6139 22.2553 21.4216 23.9836 22.0791V25.1223C22.5935 24.8781 21.9548 23.7697 21.1658 23.7697C20.452 23.7697 19.8884 24.7089 19.8884 25.3477C19.8884 26.55 21.7294 27.7147 23.9836 27.7898V28.2594C23.9836 28.5225 24.2841 28.7666 24.6974 28.7666C25.0543 28.7666 25.4112 28.5224 25.4112 28.2594V27.7147C27.609 27.3578 29.1119 25.9488 29.1119 23.6195C29.1119 21.0834 27.1206 20.2005 25.4112 19.5619ZM24.1713 19.111C23.4576 18.8104 22.9691 18.4723 22.9691 17.9275C22.9691 17.4767 23.3261 17.0446 24.1713 16.8755V19.111ZM25.2234 25.1035V22.5863C25.8996 22.9056 26.3693 23.3001 26.3693 23.92C26.3692 24.5963 25.862 24.9532 25.2234 25.1035Z" fill="url(#paint6_linear_3_639)"/>
<path d="M13.0732 21.4882C13.2961 27.6075 18.3262 32.5 24.4999 32.5C30.6735 32.5 35.7036 27.6075 35.9266 21.4882H13.0732Z" fill="url(#paint7_linear_3_639)"/>
<path d="M35.1551 25.2238C35.1155 25.3254 35.0741 25.4261 35.0318 25.5268C33.2934 29.6256 29.2322 32.5 24.5 32.5C18.1847 32.5 13.0647 27.38 13.0647 21.0647C13.0647 19.3471 13.4431 17.7188 14.1226 16.2572C14.2619 15.9541 14.4153 15.6595 14.5809 15.3725H25.3038L35.1551 25.2238Z" fill="url(#paint8_linear_3_639)"/>
<path d="M35.5047 11.4792L33.4157 9.80559C33.3238 9.7365 33.2312 9.66864 33.1379 9.60192C30.623 7.80483 27.5412 6.98921 24.4564 7.18479C21.8766 7.34836 20.8416 7.49594 17.4709 9.17566C16.8831 9.46855 16.7831 10.0899 17.2475 10.5542L17.3747 10.6814C19.9097 11.7982 22.3341 13.1457 24.6179 14.7059C25.9292 15.6017 26.2362 17.4075 25.3017 18.6916C24.4511 19.8604 22.8563 20.1937 21.6051 19.47C19.4568 18.2272 17.0716 17.4345 14.5965 17.1485C14.1236 17.0938 13.6462 17.0911 13.1714 17.1249C11.6756 17.2314 8.0548 17.4638 6.84972 17.3142C6.83862 17.3128 6.82742 17.3115 6.81622 17.3101C3.66177 16.9136 1.14676 14.4843 0.630804 11.3468L0.600122 11.16C-0.0670782 7.10742 2.6789 3.2805 6.73245 2.61396L13.732 1.463L18.1394 0.78055C25.0555 -0.234415 32.0926 1.52822 37.6973 5.67909L39.0549 6.76116C40.3651 7.73114 40.6355 9.5765 39.6592 10.8836C38.6796 12.1955 36.8139 12.4626 35.5047 11.4792Z" fill="url(#paint9_linear_3_639)"/>
<path d="M25.3017 18.6918C24.4512 19.8606 22.8564 20.1939 21.6052 19.4701C19.2355 18.0992 16.5778 17.276 13.829 17.0763C13.7876 17.0733 13.7464 17.0701 13.7052 17.0667C9.06067 16.6816 8.80985 9.97322 13.4123 9.23986C13.743 9.18715 14.082 9.23092 14.3885 9.36598L17.3747 10.6816C19.9097 11.7983 22.3342 13.1458 24.6179 14.7061C25.9293 15.602 26.2362 17.4078 25.3017 18.6918Z" fill="url(#paint10_linear_3_639)"/>
<path d="M44.4949 48.5H4.50505C3.33272 48.5 2.38232 47.5496 2.38232 46.3773V33.7235H46.6176V46.3773C46.6176 47.5496 45.6672 48.5 44.4949 48.5Z" fill="url(#paint11_linear_3_639)"/>
<path d="M2.38232 33.7235V37.4882L13.3941 48.5H44.4949C45.6672 48.5 46.6176 47.5496 46.6176 46.3773V33.7235H2.38232Z" fill="url(#paint12_linear_3_639)"/>
<path d="M2.38232 42.1941V46.3773C2.38232 47.5496 3.33272 48.5 4.50505 48.5H44.4949C45.6672 48.5 46.6176 47.5496 46.6176 46.3773V42.1941H2.38232Z" fill="url(#paint13_linear_3_639)"/>
<path d="M46.8826 37.4882H2.11741C1.22414 37.4882 0.5 36.7641 0.5 35.8708V30.8059C0.5 29.9126 1.22414 29.1885 2.11741 29.1885H46.8826C47.7759 29.1885 48.5 29.9126 48.5 30.8059V35.8708C48.5 36.7641 47.7759 37.4882 46.8826 37.4882Z" fill="url(#paint14_linear_3_639)"/>
<path d="M0.5 32.6882V35.8708C0.5 36.7641 1.22414 37.4882 2.11741 37.4882H46.8826C47.7759 37.4882 48.5 36.7641 48.5 35.8708V32.6882H0.5Z" fill="url(#paint15_linear_3_639)"/>
</g>
<path d="M66.32 32V18H72.06C73.0867 18 74.0133 18.1733 74.84 18.52C75.68 18.8533 76.4 19.3333 77 19.96C77.6133 20.5733 78.08 21.3067 78.4 22.16C78.72 23.0133 78.88 23.96 78.88 25C78.88 26.0267 78.72 26.9733 78.4 27.84C78.08 28.6933 77.62 29.4333 77.02 30.06C76.42 30.6733 75.7 31.1533 74.86 31.5C74.02 31.8333 73.0867 32 72.06 32H66.32ZM69.32 29.82L69 29.3H71.96C72.56 29.3 73.1 29.2 73.58 29C74.06 28.7867 74.4667 28.5 74.8 28.14C75.1467 27.7667 75.4067 27.3133 75.58 26.78C75.7533 26.2467 75.84 25.6533 75.84 25C75.84 24.3467 75.7533 23.76 75.58 23.24C75.4067 22.7067 75.1467 22.2533 74.8 21.88C74.4667 21.5067 74.06 21.22 73.58 21.02C73.1 20.8067 72.56 20.7 71.96 20.7H68.94L69.32 20.22V29.82ZM86.1134 32.2C85.0334 32.2 84.0668 31.9667 83.2134 31.5C82.3734 31.02 81.7068 30.3667 81.2134 29.54C80.7334 28.7133 80.4934 27.7667 80.4934 26.7C80.4934 25.6333 80.7334 24.6933 81.2134 23.88C81.7068 23.0533 82.3734 22.4 83.2134 21.92C84.0668 21.44 85.0334 21.2 86.1134 21.2C87.1801 21.2 88.1334 21.44 88.9734 21.92C89.8268 22.4 90.4934 23.0533 90.9734 23.88C91.4534 24.6933 91.6934 25.6333 91.6934 26.7C91.6934 27.7667 91.4534 28.7133 90.9734 29.54C90.4934 30.3667 89.8268 31.02 88.9734 31.5C88.1334 31.9667 87.1801 32.2 86.1134 32.2ZM86.1134 29.72C86.6334 29.72 87.1001 29.5933 87.5134 29.34C87.9268 29.0733 88.2468 28.7133 88.4734 28.26C88.7134 27.7933 88.8334 27.2733 88.8334 26.7C88.8334 26.1133 88.7134 25.5933 88.4734 25.14C88.2468 24.6733 87.9268 24.3133 87.5134 24.06C87.1001 23.7933 86.6334 23.66 86.1134 23.66C85.5801 23.66 85.1068 23.7933 84.6934 24.06C84.2801 24.3267 83.9534 24.6867 83.7134 25.14C83.4734 25.5933 83.3601 26.1133 83.3734 26.7C83.3601 27.2733 83.4734 27.7933 83.7134 28.26C83.9534 28.7133 84.2801 29.0733 84.6934 29.34C85.1068 29.5933 85.5801 29.72 86.1134 29.72ZM93.8302 32V21.42H96.5502L96.6302 23.58L96.0702 23.82C96.2168 23.34 96.4768 22.9067 96.8502 22.52C97.2368 22.12 97.6968 21.8 98.2302 21.56C98.7635 21.32 99.3235 21.2 99.9102 21.2C100.71 21.2 101.377 21.36 101.91 21.68C102.457 22 102.863 22.4867 103.13 23.14C103.41 23.78 103.55 24.5733 103.55 25.52V32H100.71V25.74C100.71 25.26 100.643 24.86 100.51 24.54C100.377 24.22 100.17 23.9867 99.8902 23.84C99.6235 23.68 99.2902 23.6133 98.8902 23.64C98.5702 23.64 98.2702 23.6933 97.9902 23.8C97.7235 23.8933 97.4902 24.0333 97.2902 24.22C97.1035 24.4067 96.9502 24.62 96.8302 24.86C96.7235 25.1 96.6702 25.36 96.6702 25.64V32H95.2702C94.9635 32 94.6902 32 94.4502 32C94.2102 32 94.0035 32 93.8302 32ZM110.232 32.2C109.352 32.2 108.558 31.96 107.852 31.48C107.145 31 106.585 30.3467 106.172 29.52C105.758 28.6933 105.552 27.7467 105.552 26.68C105.552 25.6133 105.758 24.6733 106.172 23.86C106.598 23.0333 107.172 22.3867 107.892 21.92C108.612 21.44 109.432 21.2 110.352 21.2C110.872 21.2 111.345 21.28 111.772 21.44C112.212 21.5867 112.592 21.7933 112.912 22.06C113.245 22.3267 113.525 22.6333 113.752 22.98C113.978 23.3267 114.138 23.7 114.232 24.1L113.632 24V21.42H116.452V32H113.592V29.46L114.232 29.4C114.125 29.7733 113.952 30.1267 113.712 30.46C113.472 30.7933 113.172 31.0933 112.812 31.36C112.465 31.6133 112.072 31.82 111.632 31.98C111.192 32.1267 110.725 32.2 110.232 32.2ZM111.012 29.74C111.545 29.74 112.012 29.6133 112.412 29.36C112.812 29.1067 113.118 28.7533 113.332 28.3C113.558 27.8333 113.672 27.2933 113.672 26.68C113.672 26.08 113.558 25.5533 113.332 25.1C113.118 24.6467 112.812 24.2933 112.412 24.04C112.012 23.7733 111.545 23.64 111.012 23.64C110.492 23.64 110.032 23.7733 109.632 24.04C109.245 24.2933 108.938 24.6467 108.712 25.1C108.485 25.5533 108.372 26.08 108.372 26.68C108.372 27.2933 108.485 27.8333 108.712 28.3C108.938 28.7533 109.245 29.1067 109.632 29.36C110.032 29.6133 110.492 29.74 111.012 29.74ZM120.319 32V18.74H123.159V32H120.319ZM118.339 23.96V21.42H125.319V23.96H118.339ZM132.092 32.2C130.946 32.2 129.946 31.9667 129.092 31.5C128.239 31.0333 127.572 30.3933 127.092 29.58C126.612 28.7667 126.372 27.8333 126.372 26.78C126.372 25.9667 126.506 25.22 126.772 24.54C127.039 23.86 127.412 23.2733 127.892 22.78C128.372 22.2733 128.939 21.8867 129.592 21.62C130.259 21.34 130.979 21.2 131.752 21.2C132.472 21.2 133.139 21.3333 133.752 21.6C134.366 21.8533 134.892 22.22 135.332 22.7C135.786 23.1667 136.132 23.72 136.372 24.36C136.612 25 136.719 25.7 136.692 26.46L136.672 27.34H128.172L127.712 25.6H134.332L134.012 25.96V25.52C133.986 25.16 133.866 24.8333 133.652 24.54C133.452 24.2467 133.192 24.02 132.872 23.86C132.552 23.7 132.192 23.62 131.792 23.62C131.206 23.62 130.706 23.7333 130.292 23.96C129.892 24.1867 129.586 24.52 129.372 24.96C129.159 25.4 129.052 25.9333 129.052 26.56C129.052 27.2 129.186 27.7533 129.452 28.22C129.732 28.6867 130.119 29.0533 130.612 29.32C131.119 29.5733 131.712 29.7 132.392 29.7C132.859 29.7 133.286 29.6267 133.672 29.48C134.059 29.3333 134.472 29.08 134.912 28.72L136.272 30.62C135.886 30.9667 135.459 31.26 134.992 31.5C134.526 31.7267 134.046 31.9 133.552 32.02C133.059 32.14 132.572 32.2 132.092 32.2ZM145.324 32V18H151.404C152.337 18 153.124 18.14 153.764 18.42C154.417 18.6867 154.911 19.08 155.244 19.6C155.577 20.12 155.744 20.74 155.744 21.46C155.744 22.26 155.544 22.9267 155.144 23.46C154.744 23.9933 154.171 24.36 153.424 24.56L153.404 24.16C154.017 24.3067 154.557 24.5467 155.024 24.88C155.491 25.2133 155.851 25.6267 156.104 26.12C156.357 26.6133 156.484 27.1733 156.484 27.8C156.484 28.4933 156.371 29.1067 156.144 29.64C155.917 30.16 155.584 30.5933 155.144 30.94C154.704 31.2867 154.184 31.5533 153.584 31.74C152.997 31.9133 152.337 32 151.604 32H145.324ZM148.204 29.4H151.484C151.911 29.4 152.271 29.34 152.564 29.22C152.871 29.0867 153.104 28.8867 153.264 28.62C153.424 28.3533 153.504 28.04 153.504 27.68C153.504 27.3333 153.417 27.04 153.244 26.8C153.071 26.56 152.824 26.38 152.504 26.26C152.197 26.1267 151.824 26.06 151.384 26.06H148.204V29.4ZM148.204 23.68H151.044C151.404 23.68 151.717 23.6133 151.984 23.48C152.251 23.3467 152.451 23.1667 152.584 22.94C152.731 22.7133 152.804 22.4467 152.804 22.14C152.804 21.6467 152.644 21.2667 152.324 21C152.004 20.7333 151.524 20.6 150.884 20.6H148.204V23.68ZM162.751 32.2C161.871 32.2 161.078 31.96 160.371 31.48C159.664 31 159.104 30.3467 158.691 29.52C158.278 28.6933 158.071 27.7467 158.071 26.68C158.071 25.6133 158.278 24.6733 158.691 23.86C159.118 23.0333 159.691 22.3867 160.411 21.92C161.131 21.44 161.951 21.2 162.871 21.2C163.391 21.2 163.864 21.28 164.291 21.44C164.731 21.5867 165.111 21.7933 165.431 22.06C165.764 22.3267 166.044 22.6333 166.271 22.98C166.498 23.3267 166.658 23.7 166.751 24.1L166.151 24V21.42H168.971V32H166.111V29.46L166.751 29.4C166.644 29.7733 166.471 30.1267 166.231 30.46C165.991 30.7933 165.691 31.0933 165.331 31.36C164.984 31.6133 164.591 31.82 164.151 31.98C163.711 32.1267 163.244 32.2 162.751 32.2ZM163.531 29.74C164.064 29.74 164.531 29.6133 164.931 29.36C165.331 29.1067 165.638 28.7533 165.851 28.3C166.078 27.8333 166.191 27.2933 166.191 26.68C166.191 26.08 166.078 25.5533 165.851 25.1C165.638 24.6467 165.331 24.2933 164.931 24.04C164.531 23.7733 164.064 23.64 163.531 23.64C163.011 23.64 162.551 23.7733 162.151 24.04C161.764 24.2933 161.458 24.6467 161.231 25.1C161.004 25.5533 160.891 26.08 160.891 26.68C160.891 27.2933 161.004 27.8333 161.231 28.3C161.458 28.7533 161.764 29.1067 162.151 29.36C162.551 29.6133 163.011 29.74 163.531 29.74ZM171.818 32V21.42H174.538L174.618 23.58L174.058 23.82C174.205 23.34 174.465 22.9067 174.838 22.52C175.225 22.12 175.685 21.8 176.218 21.56C176.752 21.32 177.312 21.2 177.898 21.2C178.698 21.2 179.365 21.36 179.898 21.68C180.445 22 180.852 22.4867 181.118 23.14C181.398 23.78 181.538 24.5733 181.538 25.52V32H178.698V25.74C178.698 25.26 178.632 24.86 178.498 24.54C178.365 24.22 178.158 23.9867 177.878 23.84C177.612 23.68 177.278 23.6133 176.878 23.64C176.558 23.64 176.258 23.6933 175.978 23.8C175.712 23.8933 175.478 24.0333 175.278 24.22C175.092 24.4067 174.938 24.62 174.818 24.86C174.712 25.1 174.658 25.36 174.658 25.64V32H173.258C172.952 32 172.678 32 172.438 32C172.198 32 171.992 32 171.818 32ZM189.08 36.6C188.24 36.6 187.413 36.4733 186.6 36.22C185.787 35.98 185.127 35.6667 184.62 35.28L185.62 33.24C185.887 33.4267 186.193 33.5933 186.54 33.74C186.887 33.8867 187.247 34 187.62 34.08C188.007 34.16 188.4 34.2 188.8 34.2C189.493 34.2 190.06 34.0933 190.5 33.88C190.953 33.6667 191.293 33.3467 191.52 32.92C191.747 32.5067 191.86 31.9733 191.86 31.32V29.48L192.34 29.58C192.26 30.02 192.04 30.4267 191.68 30.8C191.32 31.16 190.867 31.4533 190.32 31.68C189.773 31.8933 189.213 32 188.64 32C187.653 32 186.78 31.7733 186.02 31.32C185.26 30.8667 184.66 30.24 184.22 29.44C183.78 28.64 183.56 27.72 183.56 26.68C183.56 25.6133 183.773 24.6733 184.2 23.86C184.64 23.0333 185.233 22.3867 185.98 21.92C186.74 21.44 187.6 21.2 188.56 21.2C188.96 21.2 189.34 21.2467 189.7 21.34C190.073 21.4333 190.413 21.5667 190.72 21.74C191.04 21.9 191.32 22.0867 191.56 22.3C191.813 22.5 192.02 22.72 192.18 22.96C192.34 23.2 192.44 23.44 192.48 23.68L191.9 23.84L191.98 21.42H194.7V31.2C194.7 32.0667 194.573 32.8333 194.32 33.5C194.067 34.1667 193.693 34.7267 193.2 35.18C192.72 35.6467 192.127 36 191.42 36.24C190.727 36.48 189.947 36.6 189.08 36.6ZM189.16 29.72C189.72 29.72 190.207 29.5933 190.62 29.34C191.047 29.0867 191.373 28.7333 191.6 28.28C191.827 27.8267 191.94 27.2933 191.94 26.68C191.94 26.08 191.827 25.5533 191.6 25.1C191.373 24.6333 191.047 24.2733 190.62 24.02C190.207 23.7667 189.72 23.64 189.16 23.64C188.613 23.64 188.127 23.7733 187.7 24.04C187.287 24.2933 186.967 24.6467 186.74 25.1C186.513 25.5533 186.4 26.08 186.4 26.68C186.4 27.28 186.513 27.8133 186.74 28.28C186.967 28.7333 187.287 29.0867 187.7 29.34C188.127 29.5933 188.613 29.72 189.16 29.72ZM197.542 32V17.2H200.382V32H197.542ZM207.028 32.2C206.148 32.2 205.355 31.96 204.648 31.48C203.942 31 203.382 30.3467 202.968 29.52C202.555 28.6933 202.348 27.7467 202.348 26.68C202.348 25.6133 202.555 24.6733 202.968 23.86C203.395 23.0333 203.968 22.3867 204.688 21.92C205.408 21.44 206.228 21.2 207.148 21.2C207.668 21.2 208.142 21.28 208.568 21.44C209.008 21.5867 209.388 21.7933 209.708 22.06C210.042 22.3267 210.322 22.6333 210.548 22.98C210.775 23.3267 210.935 23.7 211.028 24.1L210.428 24V21.42H213.248V32H210.388V29.46L211.028 29.4C210.922 29.7733 210.748 30.1267 210.508 30.46C210.268 30.7933 209.968 31.0933 209.608 31.36C209.262 31.6133 208.868 31.82 208.428 31.98C207.988 32.1267 207.522 32.2 207.028 32.2ZM207.808 29.74C208.342 29.74 208.808 29.6133 209.208 29.36C209.608 29.1067 209.915 28.7533 210.128 28.3C210.355 27.8333 210.468 27.2933 210.468 26.68C210.468 26.08 210.355 25.5533 210.128 25.1C209.915 24.6467 209.608 24.2933 209.208 24.04C208.808 23.7733 208.342 23.64 207.808 23.64C207.288 23.64 206.828 23.7733 206.428 24.04C206.042 24.2933 205.735 24.6467 205.508 25.1C205.282 25.5533 205.168 26.08 205.168 26.68C205.168 27.2933 205.282 27.8333 205.508 28.3C205.735 28.7533 206.042 29.1067 206.428 29.36C206.828 29.6133 207.288 29.74 207.808 29.74ZM220.236 32.2C219.316 32.2 218.489 31.9667 217.756 31.5C217.022 31.02 216.442 30.3733 216.016 29.56C215.602 28.7333 215.396 27.78 215.396 26.7C215.396 25.6467 215.602 24.7067 216.016 23.88C216.442 23.0533 217.016 22.4 217.736 21.92C218.469 21.44 219.302 21.2 220.236 21.2C220.729 21.2 221.202 21.28 221.656 21.44C222.122 21.5867 222.536 21.7933 222.896 22.06C223.269 22.3267 223.569 22.6267 223.796 22.96C224.022 23.28 224.149 23.62 224.176 23.98L223.456 24.1V17.2H226.296V32H223.616L223.496 29.56L224.056 29.62C224.029 29.9533 223.909 30.2733 223.696 30.58C223.482 30.8867 223.196 31.1667 222.836 31.42C222.489 31.66 222.089 31.8533 221.636 32C221.196 32.1333 220.729 32.2 220.236 32.2ZM220.876 29.84C221.409 29.84 221.876 29.7067 222.276 29.44C222.676 29.1733 222.989 28.8067 223.216 28.34C223.442 27.8733 223.556 27.3267 223.556 26.7C223.556 26.0867 223.442 25.5467 223.216 25.08C222.989 24.6 222.676 24.2333 222.276 23.98C221.876 23.7133 221.409 23.58 220.876 23.58C220.342 23.58 219.876 23.7133 219.476 23.98C219.089 24.2333 218.782 24.6 218.556 25.08C218.342 25.5467 218.236 26.0867 218.236 26.7C218.236 27.3267 218.342 27.8733 218.556 28.34C218.782 28.8067 219.089 29.1733 219.476 29.44C219.876 29.7067 220.342 29.84 220.876 29.84ZM234.085 32.2C232.938 32.2 231.938 31.9667 231.085 31.5C230.231 31.0333 229.565 30.3933 229.085 29.58C228.605 28.7667 228.365 27.8333 228.365 26.78C228.365 25.9667 228.498 25.22 228.765 24.54C229.031 23.86 229.405 23.2733 229.885 22.78C230.365 22.2733 230.931 21.8867 231.585 21.62C232.251 21.34 232.971 21.2 233.745 21.2C234.465 21.2 235.131 21.3333 235.745 21.6C236.358 21.8533 236.885 22.22 237.325 22.7C237.778 23.1667 238.125 23.72 238.365 24.36C238.605 25 238.711 25.7 238.685 26.46L238.665 27.34H230.165L229.705 25.6H236.325L236.005 25.96V25.52C235.978 25.16 235.858 24.8333 235.645 24.54C235.445 24.2467 235.185 24.02 234.865 23.86C234.545 23.7 234.185 23.62 233.785 23.62C233.198 23.62 232.698 23.7333 232.285 23.96C231.885 24.1867 231.578 24.52 231.365 24.96C231.151 25.4 231.045 25.9333 231.045 26.56C231.045 27.2 231.178 27.7533 231.445 28.22C231.725 28.6867 232.111 29.0533 232.605 29.32C233.111 29.5733 233.705 29.7 234.385 29.7C234.851 29.7 235.278 29.6267 235.665 29.48C236.051 29.3333 236.465 29.08 236.905 28.72L238.265 30.62C237.878 30.9667 237.451 31.26 236.985 31.5C236.518 31.7267 236.038 31.9 235.545 32.02C235.051 32.14 234.565 32.2 234.085 32.2ZM244.343 32.2C243.357 32.2 242.477 32.04 241.703 31.72C240.943 31.3867 240.33 30.9333 239.863 30.36L241.623 28.84C242.037 29.28 242.497 29.6 243.003 29.8C243.51 29.9867 244.017 30.08 244.523 30.08C244.723 30.08 244.903 30.06 245.063 30.02C245.237 29.9667 245.383 29.9 245.503 29.82C245.623 29.7267 245.71 29.62 245.763 29.5C245.83 29.3667 245.863 29.2267 245.863 29.08C245.863 28.7867 245.743 28.5533 245.503 28.38C245.37 28.3133 245.163 28.2333 244.883 28.14C244.603 28.0333 244.243 27.92 243.803 27.8C243.123 27.6267 242.543 27.4267 242.063 27.2C241.597 26.96 241.223 26.6933 240.943 26.4C240.703 26.12 240.517 25.82 240.383 25.5C240.263 25.1667 240.203 24.8 240.203 24.4C240.203 23.92 240.31 23.4867 240.523 23.1C240.737 22.7 241.03 22.36 241.403 22.08C241.79 21.8 242.23 21.5867 242.723 21.44C243.217 21.28 243.737 21.2 244.283 21.2C244.83 21.2 245.363 21.2667 245.883 21.4C246.403 21.5333 246.883 21.7267 247.323 21.98C247.777 22.22 248.17 22.5067 248.503 22.84L246.983 24.52C246.743 24.2933 246.47 24.0867 246.163 23.9C245.87 23.7133 245.563 23.5667 245.243 23.46C244.923 23.3533 244.637 23.3 244.383 23.3C244.157 23.3 243.95 23.32 243.763 23.36C243.59 23.4 243.443 23.46 243.323 23.54C243.203 23.62 243.11 23.7267 243.043 23.86C242.99 23.98 242.963 24.1133 242.963 24.26C242.963 24.4067 242.997 24.5467 243.063 24.68C243.143 24.8133 243.25 24.9267 243.383 25.02C243.53 25.1 243.743 25.1933 244.023 25.3C244.317 25.4067 244.71 25.5267 245.203 25.66C245.843 25.8333 246.383 26.0267 246.823 26.24C247.277 26.4533 247.637 26.7 247.903 26.98C248.13 27.22 248.297 27.4933 248.403 27.8C248.51 28.1067 248.563 28.4467 248.563 28.82C248.563 29.4733 248.377 30.06 248.003 30.58C247.643 31.0867 247.143 31.4867 246.503 31.78C245.863 32.06 245.143 32.2 244.343 32.2ZM250.588 32V17.2H253.388V23.58L252.828 23.82C252.975 23.34 253.235 22.9067 253.608 22.52C253.995 22.12 254.455 21.8 254.988 21.56C255.521 21.32 256.081 21.2 256.668 21.2C257.468 21.2 258.135 21.36 258.668 21.68C259.215 22 259.621 22.4867 259.888 23.14C260.168 23.78 260.308 24.5733 260.308 25.52V32H257.468V25.74C257.468 25.26 257.401 24.86 257.268 24.54C257.135 24.22 256.928 23.9867 256.648 23.84C256.381 23.68 256.048 23.6133 255.648 23.64C255.328 23.64 255.028 23.6933 254.748 23.8C254.481 23.8933 254.248 24.0333 254.048 24.22C253.861 24.4067 253.708 24.62 253.588 24.86C253.481 25.1 253.428 25.36 253.428 25.64V32H252.028C251.721 32 251.448 32 251.208 32C250.968 32 250.761 32 250.588 32Z" fill="#111111"/>
<defs>
<linearGradient id="paint0_linear_3_639" x1="23.2906" y1="10.8863" x2="23.8615" y2="8.48033" gradientUnits="userSpaceOnUse">
<stop stop-color="#FFEEE6"/>
<stop offset="1" stop-color="#FFB09E"/>
</linearGradient>
<linearGradient id="paint1_linear_3_639" x1="24.5965" y1="10.8265" x2="25.3832" y2="7.87747" gradientUnits="userSpaceOnUse">
<stop stop-color="#FFEEE6"/>
<stop offset="1" stop-color="#FFB09E"/>
</linearGradient>
<linearGradient id="paint2_linear_3_639" x1="26.502" y1="10.7273" x2="27.4807" y2="7.30176" gradientUnits="userSpaceOnUse">
<stop stop-color="#FFEEE6"/>
<stop offset="1" stop-color="#FFB09E"/>
</linearGradient>
<linearGradient id="paint3_linear_3_639" x1="19.6059" y1="16.1706" x2="33.8193" y2="30.384" gradientUnits="userSpaceOnUse">
<stop stop-color="#FEE45A"/>
<stop offset="1" stop-color="#FE9738"/>
</linearGradient>
<linearGradient id="paint4_linear_3_639" x1="28.4474" y1="25.0122" x2="16.9831" y2="13.5479" gradientUnits="userSpaceOnUse">
<stop stop-color="#FEE45A"/>
<stop offset="1" stop-color="#FE9738"/>
</linearGradient>
<linearGradient id="paint5_linear_3_639" x1="21.0358" y1="17.6006" x2="31.0963" y2="27.6611" gradientUnits="userSpaceOnUse">
<stop stop-color="#FEE45A"/>
<stop offset="1" stop-color="#FE9738"/>
</linearGradient>
<linearGradient id="paint6_linear_3_639" x1="20.9289" y1="18.341" x2="29.9171" y2="24.7881" gradientUnits="userSpaceOnUse">
<stop stop-color="#FE9738"/>
<stop offset="1" stop-color="#F46700"/>
</linearGradient>
<linearGradient id="paint7_linear_3_639" x1="24.4999" y1="24.1706" x2="24.4999" y2="32.9236" gradientUnits="userSpaceOnUse">
<stop stop-color="#FE7701" stop-opacity="0"/>
<stop offset="0.209" stop-color="#FA7303" stop-opacity="0.209"/>
<stop offset="0.4275" stop-color="#ED6809" stop-opacity="0.428"/>
<stop offset="0.6502" stop-color="#D85613" stop-opacity="0.65"/>
<stop offset="0.8745" stop-color="#BB3C21" stop-opacity="0.875"/>
<stop offset="1" stop-color="#A72B2B"/>
</linearGradient>
<linearGradient id="paint8_linear_3_639" x1="25.116" y1="27.2063" x2="21.1989" y2="14.8567" gradientUnits="userSpaceOnUse">
<stop stop-color="#FE7701" stop-opacity="0"/>
<stop offset="0.1854" stop-color="#F87204" stop-opacity="0.185"/>
<stop offset="0.4314" stop-color="#E7630C" stop-opacity="0.431"/>
<stop offset="0.7114" stop-color="#CB4B19" stop-opacity="0.711"/>
<stop offset="1" stop-color="#A72B2B"/>
</linearGradient>
<linearGradient id="paint9_linear_3_639" x1="16.2527" y1="-2.34839" x2="22.088" y2="15.0634" gradientUnits="userSpaceOnUse">
<stop stop-color="#FFEEE6"/>
<stop offset="1" stop-color="#FFB09E"/>
</linearGradient>
<linearGradient id="paint10_linear_3_639" x1="17.9631" y1="15.0814" x2="18.5278" y2="21.7637" gradientUnits="userSpaceOnUse">
<stop stop-color="#F89580" stop-opacity="0"/>
<stop offset="0.3577" stop-color="#E98A75" stop-opacity="0.359"/>
<stop offset="0.9972" stop-color="#C5715A"/>
</linearGradient>
<linearGradient id="paint11_linear_3_639" x1="21.6949" y1="34.2319" x2="32.4237" y2="57.3837" gradientUnits="userSpaceOnUse">
<stop stop-color="#D9B1EE"/>
<stop offset="1" stop-color="#814AA0"/>
</linearGradient>
<linearGradient id="paint12_linear_3_639" x1="24.5" y1="50.1" x2="24.5" y2="21.834" gradientUnits="userSpaceOnUse">
<stop stop-color="#5B3374" stop-opacity="0"/>
<stop offset="1" stop-color="#5B3374"/>
</linearGradient>
<linearGradient id="paint13_linear_3_639" x1="24.5" y1="44.3588" x2="24.5" y2="49.1279" gradientUnits="userSpaceOnUse">
<stop stop-color="#5B3374" stop-opacity="0"/>
<stop offset="1" stop-color="#5B3374"/>
</linearGradient>
<linearGradient id="paint14_linear_3_639" x1="20.8471" y1="26.7263" x2="30.7501" y2="44.6517" gradientUnits="userSpaceOnUse">
<stop stop-color="#D9B1EE"/>
<stop offset="1" stop-color="#814AA0"/>
</linearGradient>
<linearGradient id="paint15_linear_3_639" x1="24.5" y1="34.1941" x2="24.5" y2="39.0172" gradientUnits="userSpaceOnUse">
<stop stop-color="#5B3374" stop-opacity="0"/>
<stop offset="1" stop-color="#5B3374"/>
</linearGradient>
<clipPath id="clip0_3_639">
<rect width="48" height="48" fill="white" transform="translate(0.5 0.5)"/>
</clipPath>
</defs>
</svg>
